<svg width="30" height="30" viewBox="0 0 30 30" fill="none" xmlns="http://www.w3.org/2000/svg">
<circle cx="15" cy="15" r="15" fill="#F7931A"/>
<g clip-path="url(#clip0_1_3645)">
<path d="M25.9045 17.7267C24.4041 23.7598 18.2929 27.4171 12.2755 25.9167C6.25808 24.4162 2.58512 18.305 4.08557 12.2876C5.58601 6.2546 11.6972 2.59726 17.7146 4.09771C23.7476 5.58252 27.405 11.6937 25.9045 17.7267Z" fill="#F7931A"/>
<path d="M19.9495 13.3977C20.1683 11.8973 19.0273 11.1001 17.48 10.5531L17.9801 8.52126L16.7454 8.20866L16.2609 10.178C15.9326 10.0998 15.6044 10.0217 15.2762 9.94355L15.7763 7.95859L14.5416 7.646L14.0415 9.67785C13.7758 9.61533 13.5101 9.55281 13.26 9.49029L11.5563 9.06829L11.2281 10.3812C11.2281 10.3812 12.1503 10.5844 12.119 10.6C12.6192 10.725 12.7129 11.0533 12.6973 11.319L12.119 13.6321C12.1503 13.6478 12.1972 13.6478 12.2441 13.679C12.1972 13.6634 12.1659 13.6634 12.119 13.6478L11.3063 16.8831C11.2438 17.0394 11.0875 17.2582 10.7436 17.1801C10.7592 17.1957 9.85272 16.9613 9.85272 16.9613L9.24316 18.3679L10.853 18.7743C11.15 18.8524 11.4469 18.9306 11.7283 19.0087L11.2125 21.0562L12.4472 21.3688L12.9474 19.337C13.2912 19.4307 13.6038 19.5089 13.9321 19.587L13.4319 21.6033L14.6666 21.9158L15.1824 19.8684C17.2924 20.2591 18.871 20.1028 19.5431 18.196C20.0745 16.6643 19.5118 15.7734 18.4021 15.1951C19.1836 15.0232 19.7932 14.4918 19.9495 13.3977ZM17.1361 17.352C16.761 18.8837 14.1665 18.0553 13.3381 17.8521L14.0102 15.1326C14.8542 15.3358 17.5269 15.7578 17.1361 17.352ZM17.5112 13.3821C17.1674 14.7731 15.0105 14.0698 14.3228 13.8978L14.9323 11.4284C15.6357 11.6003 17.8863 11.9285 17.5112 13.3821Z" fill="white"/>
</g>
<defs>
<clipPath id="clip0_1_3645">
<rect width="22.5" height="22.5" fill="white" transform="translate(3.75 3.75)"/>
</clipPath>
</defs>
</svg>
