<svg width="14" height="15" viewBox="0 0 14 15" fill="none" xmlns="http://www.w3.org/2000/svg">
<g clip-path="url(#clip0_1_332)">
<path d="M7 14.5C10.866 14.5 14 11.366 14 7.5C14 3.63401 10.866 0.5 7 0.5C3.13401 0.5 0 3.63401 0 7.5C0 11.366 3.13401 14.5 7 14.5Z" fill="#F3BA2F"/>
<path d="M5.30075 6.80175L7 5.1025L8.70012 6.80263L9.68888 5.81387L7 3.125L4.312 5.813L5.30075 6.80175ZM2.625 7.5L3.61375 6.51125L4.6025 7.5L3.61375 8.48875L2.625 7.5ZM5.30075 8.19825L7 9.8975L8.70012 8.19737L9.68888 9.18569L7 11.875L4.312 9.187L4.31069 9.18569L5.30075 8.19825ZM9.3975 7.5L10.3863 6.51125L11.375 7.5L10.3863 8.48875L9.3975 7.5ZM8.00275 7.49913H8.00363V7.5L7 8.50363L5.99769 7.50175L5.99594 7.5L5.99769 7.49869L6.17312 7.32281L6.25844 7.2375L7 6.49638L8.00275 7.49913Z" fill="white"/>
</g>
<defs>
<clipPath id="clip0_1_332">
<rect width="14" height="14" fill="white" transform="translate(0 0.5)"/>
</clipPath>
</defs>
</svg>
