<svg width="13" height="12" viewBox="0 0 13 12" fill="none" xmlns="http://www.w3.org/2000/svg">
<path d="M9.815 3.57495C9.835 3.87995 9.81 4.22495 9.75 4.60995L9.385 6.95495C9.075 8.90995 8.17 9.56995 6.215 9.26495L3.87 8.89495C3.195 8.78995 2.675 8.60995 2.295 8.33995C1.57 7.83495 1.36 7.00495 1.56 5.72495L1.93 3.37995C2.24 1.42495 3.145 0.764948 5.1 1.06995L7.445 1.43995C9.015 1.68495 9.75 2.32495 9.815 3.57495Z" stroke="#292D32" stroke-linecap="round" stroke-linejoin="round"/>
<path d="M10.75 6.73495L9.99998 8.98995C9.37498 10.87 8.37498 11.37 6.49498 10.745L4.23998 9.99495C3.10498 9.61995 2.47498 9.09995 2.29498 8.33995C2.67498 8.60995 3.19498 8.78995 3.86998 8.89495L6.21498 9.26495C8.16998 9.56995 9.07498 8.90995 9.38498 6.95495L9.74998 4.60995C9.80998 4.22495 9.83498 3.87995 9.81498 3.57495C11.01 4.20995 11.27 5.16995 10.75 6.73495Z" stroke="#292D32" stroke-linecap="round" stroke-linejoin="round"/>
<path d="M4.62 4.49C5.10049 4.49 5.49 4.10049 5.49 3.62C5.49 3.13951 5.10049 2.75 4.62 2.75C4.13951 2.75 3.75 3.13951 3.75 3.62C3.75 4.10049 4.13951 4.49 4.62 4.49Z" stroke="#292D32" stroke-linecap="round" stroke-linejoin="round"/>
</svg>
