<svg width="16" height="16" viewBox="0 0 16 16" fill="none" xmlns="http://www.w3.org/2000/svg">
<path d="M12.028 9.03292C11.748 9.30625 11.588 9.69959 11.628 10.1196C11.688 10.8396 12.348 11.3663 13.068 11.3663H14.3346V12.1596C14.3346 13.5396 13.208 14.6663 11.828 14.6663H4.17464C2.79464 14.6663 1.66797 13.5396 1.66797 12.1596V7.67293C1.66797 6.29293 2.79464 5.16626 4.17464 5.16626H11.828C13.208 5.16626 14.3346 6.29293 14.3346 7.67293V8.63293H12.988C12.6146 8.63293 12.2746 8.77959 12.028 9.03292Z" stroke="white" stroke-width="1.2" stroke-linecap="round" stroke-linejoin="round"/>
<path d="M1.66797 8.27288V5.22625C1.66797 4.43291 2.15464 3.72622 2.89464 3.44622L8.18797 1.44622C9.01464 1.13289 9.9013 1.74624 9.9013 2.6329V5.16623" stroke="white" stroke-width="1.2" stroke-linecap="round" stroke-linejoin="round"/>
<path d="M15.0405 9.31278V10.6862C15.0405 11.0528 14.7472 11.3528 14.3738 11.3661H13.0672C12.3472 11.3661 11.6872 10.8395 11.6272 10.1195C11.5872 9.69947 11.7472 9.30613 12.0272 9.0328C12.2738 8.77946 12.6138 8.63281 12.9872 8.63281H14.3738C14.7472 8.64615 15.0405 8.94612 15.0405 9.31278Z" stroke="white" stroke-width="1.2" stroke-linecap="round" stroke-linejoin="round"/>
<path d="M4.66797 8H9.33464" stroke="white" stroke-width="1.2" stroke-linecap="round" stroke-linejoin="round"/>
</svg>
