<svg width="147" height="147" viewBox="0 0 147 147" fill="none" xmlns="http://www.w3.org/2000/svg">
<g clip-path="url(#paint0_angular_1_499_clip_path)" data-figma-skip-parse="true"><g transform="matrix(0 0.0526296 -0.0526296 0 74.4075 72.5925)"><foreignObject x="-1172.41" y="-1172.41" width="2344.83" height="2344.83"><div xmlns="http://www.w3.org/1999/xhtml" style="background:conic-gradient(from 90deg,rgba(18, 18, 18, 0.29) 0deg,rgba(18, 18, 18, 0) 0.00417194deg,rgba(18, 18, 18, 1) 359.99deg,rgba(18, 18, 18, 0.2896) 360deg);height:100%;width:100%;opacity:1"></div></foreignObject></g></g><path d="M127.037 72.5925H122.5C122.5 99.1533 100.968 120.685 74.4075 120.685V125.222V129.759C105.98 129.759 131.574 104.165 131.574 72.5925H127.037ZM74.4075 125.222V120.685C47.8467 120.685 26.3149 99.1533 26.3149 72.5925H21.7778H17.2408C17.2408 104.165 42.8352 129.759 74.4075 129.759V125.222ZM21.7778 72.5925H26.3149C26.3149 46.0317 47.8467 24.4999 74.4075 24.4999V19.9629V15.4259C42.8352 15.4259 17.2408 41.0202 17.2408 72.5925H21.7778ZM74.4075 19.9629V24.4999C100.968 24.4999 122.5 46.0317 122.5 72.5925H127.037H131.574C131.574 41.0202 105.98 15.4259 74.4075 15.4259V19.9629Z" data-figma-gradient-fill="{&#34;type&#34;:&#34;GRADIENT_ANGULAR&#34;,&#34;stops&#34;:[{&#34;color&#34;:{&#34;r&#34;:0.070588238537311554,&#34;g&#34;:0.070588238537311554,&#34;b&#34;:0.070588238537311554,&#34;a&#34;:0.0},&#34;position&#34;:1.1588714187382720e-05},{&#34;color&#34;:{&#34;r&#34;:0.070588238537311554,&#34;g&#34;:0.070588238537311554,&#34;b&#34;:0.070588238537311554,&#34;a&#34;:1.0},&#34;position&#34;:0.99997162818908691}],&#34;stopsVar&#34;:[{&#34;color&#34;:{&#34;r&#34;:0.070588238537311554,&#34;g&#34;:0.070588238537311554,&#34;b&#34;:0.070588238537311554,&#34;a&#34;:0.0},&#34;position&#34;:1.1588714187382720e-05},{&#34;color&#34;:{&#34;r&#34;:0.070588238537311554,&#34;g&#34;:0.070588238537311554,&#34;b&#34;:0.070588238537311554,&#34;a&#34;:1.0},&#34;position&#34;:0.99997162818908691}],&#34;transform&#34;:{&#34;m00&#34;:6.4452710543346815e-15,&#34;m01&#34;:-105.25926208496094,&#34;m02&#34;:127.03709411621094,&#34;m10&#34;:105.25926208496094,&#34;m11&#34;:6.4452710543346815e-15,&#34;m12&#34;:19.9628906250},&#34;opacity&#34;:1.0,&#34;blendMode&#34;:&#34;NORMAL&#34;,&#34;visible&#34;:true}"/>
<path d="M58.2038 68.5751L54.9082 60.8259L91.4273 46.3074L94.4557 53.8784L85.577 57.4629C82.5623 58.6801 81.1079 62.1131 82.3309 65.1255L88.577 80.5106L80.9169 83.6281L74.6018 68.1692C73.3691 65.1517 69.9165 63.7132 66.906 64.9629L58.2038 68.5751Z" fill="#0D0D0D"/>
<circle cx="91.0724" cy="65.0153" r="6.05682" fill="#0D0D0D"/>
<path d="M74.1961 73.927C73.491 72.1309 72.2208 70.6417 70.6649 69.7868C69.109 68.9319 67.3949 68.7814 65.8996 69.3684C64.4044 69.9554 63.2504 71.2319 62.6917 72.917C62.133 74.602 62.2152 76.5577 62.9203 78.3538L68.5582 76.1404L74.1961 73.927Z" fill="#0D0D0D"/>
<path d="M85.6366 91.1919C83.5324 93.4748 80.5221 95.0299 77.0392 95.6332C73.5563 96.2365 69.7804 95.8569 66.2553 94.5491C62.7301 93.2413 59.6376 91.0727 57.423 88.3556C55.2083 85.6385 53.9858 82.5131 53.9316 79.4294L61.4403 80.2078C61.4712 81.9615 62.1664 83.7389 63.4259 85.2841C64.6853 86.8294 66.4441 88.0626 68.4488 88.8064C70.4535 89.5502 72.6009 89.766 74.5816 89.4229C76.5624 89.0798 78.2743 88.1955 79.471 86.8972L85.6366 91.1919Z" fill="#0D0D0D"/>
<defs>
<clipPath id="paint0_angular_1_499_clip_path"><path d="M127.037 72.5925H122.5C122.5 99.1533 100.968 120.685 74.4075 120.685V125.222V129.759C105.98 129.759 131.574 104.165 131.574 72.5925H127.037ZM74.4075 125.222V120.685C47.8467 120.685 26.3149 99.1533 26.3149 72.5925H21.7778H17.2408C17.2408 104.165 42.8352 129.759 74.4075 129.759V125.222ZM21.7778 72.5925H26.3149C26.3149 46.0317 47.8467 24.4999 74.4075 24.4999V19.9629V15.4259C42.8352 15.4259 17.2408 41.0202 17.2408 72.5925H21.7778ZM74.4075 19.9629V24.4999C100.968 24.4999 122.5 46.0317 122.5 72.5925H127.037H131.574C131.574 41.0202 105.98 15.4259 74.4075 15.4259V19.9629Z"/></clipPath></defs>
</svg>
