<svg width="94" height="30" viewBox="0 0 94 30" fill="none" xmlns="http://www.w3.org/2000/svg">
<circle cx="15" cy="15" r="14.3" stroke="#E5E5E5" stroke-width="0.6"/>
<path d="M8.97353 13.9319L7.7997 11.1718L20.807 6.00061L21.8857 8.69726L18.7233 9.974C17.6495 10.4075 17.1315 11.6303 17.5671 12.7032L19.7918 18.1831L17.0635 19.2935L14.8142 13.7874C14.3751 12.7126 13.1454 12.2002 12.073 12.6453L8.97353 13.9319Z" fill="#0D0D0D"/>
<circle cx="20.6811" cy="12.6642" r="2.15732" fill="#0D0D0D"/>
<path d="M14.6719 15.8379C14.4208 15.1982 13.9684 14.6677 13.4142 14.3632C12.86 14.0587 12.2495 14.0051 11.7169 14.2142C11.1843 14.4233 10.7733 14.8779 10.5743 15.4781C10.3753 16.0783 10.4046 16.7749 10.6557 17.4146L12.6638 16.6262L14.6719 15.8379Z" fill="#0D0D0D"/>
<path d="M18.7445 21.988C17.995 22.8011 16.9228 23.355 15.6823 23.5699C14.4417 23.7848 13.0968 23.6496 11.8413 23.1837C10.5857 22.7179 9.48419 21.9455 8.69538 20.9777C7.90657 20.01 7.47115 18.8967 7.45182 17.7984L10.1263 18.0757C10.1373 18.7003 10.3849 19.3334 10.8335 19.8837C11.2821 20.4341 11.9085 20.8734 12.6226 21.1383C13.3366 21.4032 14.1015 21.4801 14.807 21.3579C15.5125 21.2357 16.1222 20.9207 16.5484 20.4583L18.7445 21.988Z" fill="#0D0D0D"/>
<path d="M35.3589 20.5V9.94H37.9509V20.5H35.3589ZM32.3029 12.084V9.94H41.0389V12.084H32.3029ZM42.2889 20.5V12.052H44.8649V20.5H42.2889ZM43.5849 10.884C43.0942 10.884 42.7155 10.7827 42.4489 10.58C42.1929 10.3667 42.0649 10.0627 42.0649 9.668C42.0649 9.27333 42.1929 8.97467 42.4489 8.772C42.7155 8.55867 43.0942 8.452 43.5849 8.452C44.0862 8.452 44.4649 8.55867 44.7209 8.772C44.9875 8.97467 45.1209 9.27333 45.1209 9.668C45.1209 10.0627 44.9875 10.3667 44.7209 10.58C44.4649 10.7827 44.0862 10.884 43.5849 10.884ZM46.8358 23.204V16.34V12.052H48.9318L48.9638 14.468L49.2678 14.5C49.3638 13.892 49.5344 13.3907 49.7798 12.996C50.0251 12.6013 50.3398 12.308 50.7238 12.116C51.1078 11.924 51.5504 11.828 52.0518 11.828C52.7984 11.828 53.4384 12.0093 53.9718 12.372C54.5051 12.7347 54.9158 13.252 55.2038 13.924C55.5024 14.596 55.6518 15.4013 55.6518 16.34C55.6518 17.1827 55.5238 17.9347 55.2678 18.596C55.0224 19.2573 54.6438 19.78 54.1318 20.164C53.6198 20.5373 52.9798 20.724 52.2118 20.724C51.6891 20.724 51.2464 20.6333 50.8838 20.452C50.5211 20.26 50.2118 19.9827 49.9557 19.62C49.7104 19.2467 49.5078 18.7933 49.3478 18.26H49.0278C49.0918 18.548 49.1504 18.8413 49.2038 19.14C49.2678 19.428 49.3158 19.716 49.3478 20.004C49.3904 20.2813 49.4118 20.548 49.4118 20.804V23.204H46.8358ZM51.2678 18.692C51.6198 18.692 51.9184 18.596 52.1638 18.404C52.4198 18.212 52.6118 17.94 52.7398 17.588C52.8784 17.236 52.9478 16.8253 52.9478 16.356C52.9478 15.8547 52.8731 15.428 52.7238 15.076C52.5851 14.7133 52.3824 14.436 52.1158 14.244C51.8598 14.0413 51.5558 13.94 51.2038 13.94C50.8838 13.94 50.6064 14.0147 50.3718 14.164C50.1478 14.3027 49.9611 14.484 49.8118 14.708C49.6731 14.932 49.5718 15.1773 49.5078 15.444C49.4438 15.7 49.4118 15.9453 49.4118 16.18V16.516C49.4118 16.7187 49.4384 16.9267 49.4918 17.14C49.5451 17.3427 49.6251 17.5347 49.7318 17.716C49.8384 17.8973 49.9664 18.0627 50.1158 18.212C50.2651 18.3613 50.4358 18.4787 50.6278 18.564C50.8198 18.6493 51.0331 18.692 51.2678 18.692ZM57.2915 20.5V9.94H59.8835V20.5H57.2915ZM59.1635 20.5V18.42H65.6435V20.5H59.1635ZM59.1635 16.116V14.244H64.8275V16.116H59.1635ZM59.1635 12.004V9.94H65.5955V12.004H59.1635ZM69.1944 20.724C68.7357 20.724 68.3197 20.6333 67.9464 20.452C67.5837 20.26 67.301 19.988 67.0984 19.636C66.8957 19.284 66.7944 18.8467 66.7944 18.324C66.7944 17.844 66.885 17.4493 67.0664 17.14C67.2584 16.82 67.5304 16.5693 67.8824 16.388C68.245 16.196 68.677 16.0413 69.1784 15.924C69.6797 15.796 70.245 15.684 70.8744 15.588C71.1944 15.5347 71.461 15.4867 71.6744 15.444C71.8877 15.3907 72.0477 15.3107 72.1544 15.204C72.261 15.0973 72.3144 14.9427 72.3144 14.74C72.3144 14.4733 72.213 14.244 72.0104 14.052C71.8184 13.86 71.5144 13.764 71.0984 13.764C70.7997 13.764 70.5277 13.8173 70.2824 13.924C70.037 14.0307 69.829 14.1853 69.6584 14.388C69.4877 14.5907 69.365 14.8413 69.2904 15.14L67.0184 14.468C67.157 14.0093 67.349 13.6147 67.5944 13.284C67.8504 12.9533 68.1544 12.6813 68.5064 12.468C68.8584 12.244 69.2584 12.084 69.7064 11.988C70.1544 11.8813 70.6397 11.828 71.1624 11.828C72.0157 11.828 72.709 11.9667 73.2424 12.244C73.7864 12.5107 74.1864 12.932 74.4424 13.508C74.709 14.084 74.8424 14.8147 74.8424 15.7V17.012C74.8424 17.396 74.8477 17.7853 74.8584 18.18C74.8797 18.564 74.901 18.948 74.9224 19.332C74.9437 19.716 74.9757 20.1053 75.0184 20.5H72.7464C72.7037 20.244 72.661 19.9453 72.6184 19.604C72.5864 19.2627 72.5597 18.9107 72.5384 18.548H72.2344C72.085 18.9533 71.8664 19.3267 71.5784 19.668C71.301 19.9987 70.9597 20.26 70.5544 20.452C70.1597 20.6333 69.7064 20.724 69.1944 20.724ZM70.3624 18.9C70.5544 18.9 70.7464 18.868 70.9384 18.804C71.141 18.7293 71.333 18.628 71.5144 18.5C71.6957 18.372 71.861 18.2227 72.0104 18.052C72.1597 17.8707 72.277 17.668 72.3624 17.444L72.3304 16.196L72.6664 16.276C72.4744 16.404 72.2557 16.5053 72.0104 16.58C71.765 16.6547 71.5144 16.7133 71.2584 16.756C71.013 16.7987 70.7677 16.8467 70.5224 16.9C70.2877 16.9427 70.0744 17.0013 69.8824 17.076C69.701 17.1507 69.5517 17.252 69.4344 17.38C69.3277 17.508 69.2744 17.684 69.2744 17.908C69.2744 18.2067 69.3757 18.4467 69.5784 18.628C69.781 18.8093 70.0424 18.9 70.3624 18.9ZM80.1508 20.724C79.5854 20.724 79.0734 20.6707 78.6148 20.564C78.1561 20.468 77.7561 20.324 77.4148 20.132C77.0734 19.9293 76.7908 19.6947 76.5668 19.428C76.3534 19.1507 76.2094 18.8413 76.1348 18.5L78.0707 17.668C78.1454 17.86 78.2734 18.052 78.4548 18.244C78.6361 18.4253 78.8814 18.5747 79.1908 18.692C79.5108 18.8093 79.8894 18.868 80.3268 18.868C80.7641 18.868 81.1001 18.8093 81.3348 18.692C81.5801 18.564 81.7028 18.3827 81.7028 18.148C81.7028 17.9773 81.6334 17.844 81.4948 17.748C81.3561 17.6413 81.1534 17.5507 80.8868 17.476C80.6308 17.3907 80.3001 17.3107 79.8948 17.236C79.5001 17.1507 79.0894 17.0547 78.6628 16.948C78.2468 16.8307 77.8574 16.676 77.4948 16.484C77.1428 16.2813 76.8548 16.02 76.6308 15.7C76.4174 15.3693 76.3108 14.9533 76.3108 14.452C76.3108 13.9293 76.4494 13.476 76.7268 13.092C77.0041 12.6973 77.4148 12.388 77.9588 12.164C78.5134 11.94 79.1854 11.828 79.9748 11.828C80.6681 11.828 81.2814 11.9187 81.8148 12.1C82.3588 12.2813 82.8068 12.5427 83.1588 12.884C83.5108 13.2147 83.7561 13.6253 83.8948 14.116L81.8308 14.82C81.7774 14.596 81.6708 14.3987 81.5108 14.228C81.3508 14.0467 81.1428 13.9133 80.8868 13.828C80.6308 13.732 80.3321 13.684 79.9908 13.684C79.5748 13.684 79.2548 13.748 79.0308 13.876C78.8068 14.004 78.6948 14.1747 78.6948 14.388C78.6948 14.5587 78.7694 14.7027 78.9188 14.82C79.0681 14.9267 79.2868 15.0173 79.5748 15.092C79.8628 15.1667 80.2041 15.2467 80.5988 15.332C81.0254 15.4173 81.4414 15.5187 81.8468 15.636C82.2628 15.7427 82.6361 15.892 82.9668 16.084C83.3081 16.2653 83.5748 16.5107 83.7668 16.82C83.9694 17.1187 84.0708 17.508 84.0708 17.988C84.0708 18.5533 83.9161 19.044 83.6068 19.46C83.3081 19.8653 82.8654 20.18 82.2788 20.404C81.7028 20.6173 80.9934 20.724 80.1508 20.724ZM89.5861 20.724C88.8715 20.724 88.2368 20.6333 87.6821 20.452C87.1275 20.26 86.6581 19.9827 86.2741 19.62C85.8901 19.2467 85.5968 18.7933 85.3941 18.26C85.1915 17.7267 85.0901 17.1187 85.0901 16.436C85.0901 15.764 85.1861 15.1453 85.3781 14.58C85.5701 14.0147 85.8528 13.5293 86.2261 13.124C86.5995 12.708 87.0528 12.388 87.5861 12.164C88.1301 11.94 88.7381 11.828 89.4101 11.828C90.0821 11.828 90.6741 11.94 91.1861 12.164C91.7088 12.3773 92.1408 12.6973 92.4821 13.124C92.8235 13.5507 93.0688 14.0733 93.2181 14.692C93.3781 15.3 93.4315 15.9987 93.3781 16.788L86.7701 16.836V15.492L91.8901 15.444L90.9941 16.068C91.0688 15.5347 91.0368 15.1027 90.8981 14.772C90.7595 14.4307 90.5568 14.1853 90.2901 14.036C90.0341 13.876 89.7515 13.796 89.4421 13.796C89.0688 13.796 88.7381 13.8973 88.4501 14.1C88.1621 14.3027 87.9381 14.596 87.7781 14.98C87.6288 15.364 87.5541 15.8333 87.5541 16.388C87.5541 17.2627 87.7408 17.8973 88.1141 18.292C88.4981 18.6867 88.9835 18.884 89.5701 18.884C89.8581 18.884 90.0928 18.8467 90.2741 18.772C90.4661 18.6867 90.6208 18.5853 90.7381 18.468C90.8661 18.34 90.9621 18.2013 91.0261 18.052C91.1008 17.9027 91.1595 17.7533 91.2021 17.604L93.4421 18.084C93.3675 18.4787 93.2341 18.836 93.0421 19.156C92.8608 19.476 92.6101 19.7533 92.2901 19.988C91.9808 20.2227 91.6021 20.404 91.1541 20.532C90.7061 20.66 90.1835 20.724 89.5861 20.724Z" fill="#0D0D0D"/>
</svg>
