<svg width="17" height="20" viewBox="0 0 17 20" fill="none" xmlns="http://www.w3.org/2000/svg">
<path d="M2.97364 7.93192L1.7998 5.17182L14.8071 0.000610352L15.8858 2.69726L12.7234 3.974C11.6496 4.40751 11.1316 5.63029 11.5672 6.70324L13.7919 12.1831L11.0636 13.2935L8.81426 7.78736C8.3752 6.71257 7.14546 6.20022 6.07316 6.64533L2.97364 7.93192Z" fill="#0D0D0D"/>
<circle cx="14.6812" cy="6.66415" r="2.15732" fill="#0D0D0D"/>
<path d="M8.67214 9.83787C8.421 9.19816 7.96857 8.66771 7.41439 8.36321C6.86021 8.05871 6.24967 8.00511 5.71709 8.2142C5.18451 8.42329 4.77351 8.87793 4.5745 9.47813C4.37549 10.0783 4.40478 10.7749 4.65593 11.4146L6.66404 10.6262L8.67214 9.83787Z" fill="#0D0D0D"/>
<path d="M12.7447 15.988C11.9952 16.8011 10.923 17.355 9.6825 17.5699C8.44195 17.7848 7.09706 17.6496 5.84148 17.1837C4.5859 16.7179 3.4844 15.9455 2.69559 14.9777C1.90679 14.01 1.47137 12.8967 1.45203 11.7984L4.1265 12.0757C4.13749 12.7003 4.38512 13.3334 4.83371 13.8837C5.2823 14.4341 5.90873 14.8734 6.62278 15.1383C7.33683 15.4032 8.10167 15.4801 8.80717 15.3579C9.51267 15.2357 10.1224 14.9207 10.5487 14.4583L12.7447 15.988Z" fill="#0D0D0D"/>
</svg>
