<svg width="46" height="46" viewBox="0 0 46 46" fill="none" xmlns="http://www.w3.org/2000/svg">
<circle cx="23" cy="23" r="23" fill="#0D0D0D"/>
<g clip-path="url(#clip0_59_575)">
<path d="M35.0334 34.8682L29.2794 33.1586L24.9402 35.747L21.9126 35.7456L17.5706 33.1586L11.819 34.868L10.0696 28.9748L11.819 22.4339L10.0696 16.9034L11.819 10.0493L20.8065 15.407H26.0463L35.0334 10.0493L36.7829 16.9034L35.0334 22.4336L36.7829 28.9745L35.0334 34.8682Z" fill="#FF5C16"/>
<path d="M11.819 10.0493L20.8064 15.4111L20.4488 19.0907L11.819 10.0493ZM17.5713 28.9768L21.5258 31.9825L17.5713 33.1581V28.9768ZM21.2086 24.0069L20.4485 19.0926L15.584 22.4342L15.5812 22.4328V22.4355L15.5964 25.875L17.5691 24.0069H21.2086ZM35.0314 10.0493L26.0443 15.4111L26.4003 19.0907L35.0314 10.0493ZM29.281 28.9768L25.3271 31.9823L29.2813 33.1578L29.281 28.9768ZM31.2684 22.4353V22.4328L31.2672 22.4342L26.4022 19.0926L25.6424 24.0069H29.2807L31.2545 25.875L31.2684 22.4353Z" fill="#FF5C16"/>
<path d="M17.5709 33.1587L11.819 34.868L10.0696 28.9774H17.5709V33.1587ZM21.2086 24.007L22.3073 31.1113L20.7846 27.1615L15.5951 25.8765L17.5689 24.0072L21.2086 24.007ZM29.2819 33.1587L35.0337 34.868L36.7832 28.9774H29.2819V33.1587ZM25.6441 24.007L24.5455 31.1113L26.0682 27.1615L31.2576 25.8765L29.2825 24.0072L25.6441 24.007Z" fill="#E34807"/>
<path d="M10.0696 28.9747L11.819 22.4334H15.5816L15.5954 25.8743L20.7849 27.1591L22.3076 31.1091L21.5248 31.979L17.5709 28.9733H10.0696V28.9747ZM36.7835 28.9747L35.034 22.4334H31.2715L31.2576 25.8743L26.0682 27.1591L24.5455 31.1091L25.3283 31.979L29.2825 28.9733H36.7832L36.7835 28.9747ZM26.0466 15.4062H20.8068L20.4505 19.0858L22.3078 31.1044H24.5455L26.4042 19.0858L26.0466 15.4062Z" fill="#FF8D5D"/>
<path d="M11.819 10.0493L10.0696 16.9034L11.819 22.4336H15.5816L20.4488 19.0907L11.819 10.0493ZM20.1227 25.4338H18.4183L17.4901 26.3416L20.7871 27.1576L20.1227 25.4327V25.4338ZM35.0337 10.0493L36.7832 16.9034L35.0337 22.4336H31.2712L26.4039 19.0907L35.0337 10.0493ZM26.7328 25.4338H28.4394L29.3677 26.343L26.0668 27.1601L26.7328 25.4327V25.4338ZM24.9394 33.4023L25.3283 31.9814L24.5458 31.1115H22.307L21.5245 31.9814L21.9134 33.402" fill="#661800"/>
<path d="M24.9388 33.4031V35.7486H21.9126V33.4031H24.9388Z" fill="#C0C4CD"/>
<path d="M17.5708 33.1559L21.9139 35.7467V33.4009L21.5253 31.9803L17.5708 33.1559ZM29.2805 33.1559L24.9374 35.7467V33.4009L25.326 31.9803L29.2805 33.1559Z" fill="#E7EBF6"/>
</g>
<defs>
<clipPath id="clip0_59_575">
<rect width="26.8298" height="26" fill="white" transform="translate(10 10)"/>
</clipPath>
</defs>
</svg>
