<svg width="48" height="48" viewBox="0 0 48 48" fill="none" xmlns="http://www.w3.org/2000/svg">
<circle cx="24" cy="24" r="23.3" fill="url(#paint0_linear_1_300)" stroke="#EAECF0" stroke-width="0.6"/>
<path d="M29.5583 15.6666H27.975C26.1583 15.6666 25.2 16.625 25.2 18.4416V20.025C25.2 21.8416 26.1583 22.8 27.975 22.8H29.5583C31.375 22.8 32.3333 21.8416 32.3333 20.025V18.4416C32.3333 16.625 31.375 15.6666 29.5583 15.6666Z" fill="#292D32"/>
<path d="M20.0333 25.1917H18.45C16.625 25.1917 15.6666 26.15 15.6666 27.9667V29.55C15.6666 31.375 16.625 32.3333 18.4416 32.3333H20.025C21.8416 32.3333 22.8 31.375 22.8 29.5583V27.975C22.8083 26.15 21.85 25.1917 20.0333 25.1917Z" fill="#292D32"/>
<path d="M19.2416 22.8166C21.216 22.8166 22.8166 21.216 22.8166 19.2416C22.8166 17.2672 21.216 15.6666 19.2416 15.6666C17.2672 15.6666 15.6666 17.2672 15.6666 19.2416C15.6666 21.216 17.2672 22.8166 19.2416 22.8166Z" fill="#292D32"/>
<path d="M28.7583 32.3334C30.7328 32.3334 32.3334 30.7328 32.3334 28.7583C32.3334 26.7839 30.7328 25.1833 28.7583 25.1833C26.7839 25.1833 25.1833 26.7839 25.1833 28.7583C25.1833 30.7328 26.7839 32.3334 28.7583 32.3334Z" fill="#292D32"/>
<defs>
<linearGradient id="paint0_linear_1_300" x1="24" y1="1" x2="24" y2="47" gradientUnits="userSpaceOnUse">
<stop stop-color="white"/>
<stop offset="1" stop-color="#999999"/>
</linearGradient>
</defs>
</svg>
