<svg width="30" height="30" viewBox="0 0 30 30" fill="none" xmlns="http://www.w3.org/2000/svg">
<path d="M0 15C0 6.71573 6.71573 0 15 0V0C23.2843 0 30 6.71573 30 15V15C30 23.2843 23.2843 30 15 30V30C6.71573 30 0 23.2843 0 15V15Z" fill="black"/>
<g clip-path="url(#clip0_103_8)">
<path d="M22.9228 18.8264L20.4466 21.7957C20.3927 21.8602 20.3276 21.9116 20.2552 21.9468C20.1829 21.9819 20.1048 22.0001 20.0259 22H8.28747C8.23146 22 8.17667 21.9817 8.12983 21.9474C8.08299 21.913 8.04615 21.8641 8.02382 21.8067C8.0015 21.7493 7.99467 21.6858 8.00416 21.6241C8.01366 21.5623 8.03908 21.5051 8.07729 21.4593L10.5554 18.49C10.609 18.4257 10.674 18.3743 10.7461 18.3392C10.8182 18.3041 10.8961 18.2859 10.9748 18.2857H22.7125C22.7685 18.2857 22.8233 18.304 22.8702 18.3383C22.917 18.3727 22.9538 18.4216 22.9762 18.479C22.9985 18.5365 23.0053 18.5999 22.9958 18.6616C22.9863 18.7234 22.9609 18.7806 22.9228 18.8264ZM20.4466 12.8471C20.3927 12.7826 20.3276 12.7312 20.2552 12.6961C20.1829 12.6609 20.1048 12.6428 20.0259 12.6429H8.28747C8.23146 12.6429 8.17667 12.6612 8.12983 12.6955C8.08299 12.7298 8.04615 12.7787 8.02382 12.8362C8.0015 12.8936 7.99467 12.9571 8.00416 13.0188C8.01366 13.0805 8.03908 13.1378 8.07729 13.1836L10.5554 16.1529C10.609 16.2172 10.674 16.2685 10.7461 16.3036C10.8182 16.3388 10.8961 16.357 10.9748 16.3571H22.7125C22.7685 16.3571 22.8233 16.3388 22.8702 16.3045C22.917 16.2702 22.9538 16.2213 22.9762 16.1638C22.9985 16.1064 23.0053 16.0429 22.9958 15.9812C22.9863 15.9195 22.9609 15.8622 22.9228 15.8164L20.4466 12.8471ZM8.28747 10.7143H20.0259C20.1048 10.7143 20.1829 10.6962 20.2552 10.6611C20.3276 10.6259 20.3927 10.5745 20.4466 10.51L22.9228 7.54071C22.9609 7.49493 22.9863 7.43766 22.9958 7.37594C23.0053 7.31422 22.9985 7.25074 22.9762 7.19331C22.9538 7.13587 22.917 7.08698 22.8702 7.05264C22.8233 7.0183 22.7685 7 22.7125 7H10.9748C10.8961 7.00015 10.8182 7.01836 10.7461 7.0535C10.674 7.08864 10.609 7.13996 10.5554 7.20429L8.07793 10.1736C8.03975 10.2193 8.01435 10.2765 8.00483 10.3382C7.99531 10.3998 8.00209 10.4632 8.02434 10.5207C8.04658 10.5781 8.08333 10.6269 8.13007 10.6613C8.17681 10.6957 8.23151 10.7141 8.28747 10.7143Z" fill="url(#paint0_linear_103_8)"/>
</g>
<defs>
<linearGradient id="paint0_linear_103_8" x1="9.26618" y1="22.3575" x2="23.1282" y2="8.38165" gradientUnits="userSpaceOnUse">
<stop offset="0.08" stop-color="#9945FF"/>
<stop offset="0.3" stop-color="#8752F3"/>
<stop offset="0.5" stop-color="#5497D5"/>
<stop offset="0.6" stop-color="#43B4CA"/>
<stop offset="0.72" stop-color="#28E0B9"/>
<stop offset="0.97" stop-color="#19FB9B"/>
</linearGradient>
<clipPath id="clip0_103_8">
<rect width="15" height="15" fill="white" transform="translate(8 7)"/>
</clipPath>
</defs>
</svg>
