<svg width="14" height="14" viewBox="0 0 14 14" fill="none" xmlns="http://www.w3.org/2000/svg">
<path d="M7.00002 11.6667L1.16669 5.91212L3.3921 2.33337H10.6079L12.8334 5.91212L7.00002 11.6667ZM7.58335 6.41671V5.70504C8.63335 5.75754 9.61335 5.96171 9.91669 6.22712C9.56377 6.53629 8.30085 6.76087 7.00002 6.76087C5.69919 6.76087 4.43627 6.53629 4.08335 6.22712C4.38377 5.96171 5.36669 5.76046 6.41669 5.70212V6.41671H7.58335ZM4.08335 6.22421V6.65296C4.38377 6.91837 5.36377 7.11962 6.41669 7.17796V8.75004H7.58335V7.17504C8.63335 7.12254 9.61627 6.91837 9.91669 6.65296V5.79837C9.61627 5.53296 8.63335 5.32879 7.58335 5.27337V4.66671H9.33335V3.79171H4.66669V4.66671H6.41669V5.27337C5.36377 5.32879 4.38377 5.53296 4.08335 5.79837V6.22421Z" fill="#009393"/>
</svg>
